<?xml version="1.0" encoding="UTF-8" standalone="no"?>
<!-- Created with Inkscape (http://www.inkscape.org/) -->

<svg
   width="4.2142839mm"
   height="4.2333479mm"
   viewBox="0 0 4.2142839 4.2333479"
   version="1.1"
   id="svg1"
   xml:space="preserve"
   inkscape:version="1.4.2 (f4327f4, 2025-05-13)"
   sodipodi:docname="wgreen.svg"
   xmlns:inkscape="http://www.inkscape.org/namespaces/inkscape"
   xmlns:sodipodi="http://sodipodi.sourceforge.net/DTD/sodipodi-0.dtd"
   xmlns="http://www.w3.org/2000/svg"
   xmlns:svg="http://www.w3.org/2000/svg"><sodipodi:namedview
     id="namedview1"
     pagecolor="#ffffff"
     bordercolor="#000000"
     borderopacity="0.25"
     inkscape:showpageshadow="2"
     inkscape:pageopacity="0.0"
     inkscape:pagecheckerboard="0"
     inkscape:deskcolor="#d1d1d1"
     inkscape:document-units="mm"
     inkscape:zoom="2.1089995"
     inkscape:cx="20.625894"
     inkscape:cy="23.470844"
     inkscape:window-width="1920"
     inkscape:window-height="1017"
     inkscape:window-x="-8"
     inkscape:window-y="-8"
     inkscape:window-maximized="1"
     inkscape:current-layer="layer6" /><defs
     id="defs1"><inkscape:path-effect
       effect="powerstroke"
       message=""
       id="path-effect4"
       is_visible="true"
       lpeversion="1.3"
       scale_width="1"
       interpolator_type="CubicBezierJohan"
       interpolator_beta="0.2"
       start_linecap_type="zerowidth"
       end_linecap_type="zerowidth"
       offset_points="14,0"
       linejoin_type="extrp_arc"
       miter_limit="4"
       not_jump="false"
       sort_points="true" /><inkscape:path-effect
       effect="powerstroke"
       message=""
       id="path-effect2"
       is_visible="true"
       lpeversion="1.3"
       scale_width="1"
       interpolator_type="CubicBezierJohan"
       interpolator_beta="0.2"
       start_linecap_type="zerowidth"
       end_linecap_type="zerowidth"
       offset_points="14,0"
       linejoin_type="extrp_arc"
       miter_limit="4"
       not_jump="false"
       sort_points="true" /><inkscape:path-effect
       effect="fill_between_many"
       method="bsplinespiro"
       autoreverse="false"
       close="false"
       join="false"
       linkedpaths="#path2,0,1"
       id="path-effect3"
       is_visible="true"
       lpeversion="0" /><inkscape:path-effect
       effect="fill_between_many"
       method="bsplinespiro"
       autoreverse="false"
       close="false"
       join="false"
       linkedpaths="#path2,0,1"
       id="path-effect3-1"
       is_visible="true"
       lpeversion="0" /><inkscape:path-effect
       effect="fill_between_many"
       method="bsplinespiro"
       autoreverse="false"
       close="false"
       join="false"
       linkedpaths="#path4,0,1"
       id="path-effect5"
       is_visible="true"
       lpeversion="0" /></defs><g
     inkscape:label="Capa 1"
     inkscape:groupmode="layer"
     id="layer1"
     transform="translate(-106.46224,-154.40852)"><g
       inkscape:groupmode="layer"
       id="layer4"
       inkscape:label="Capa 2"><path
         inkscape:original-d="M 0,0"
         inkscape:path-effect="#path-effect3-1"
         d="m -2.3173772,1.4058736 0.23523,-0.72136 -0.26659,-0.75273 0.10977,-0.94091 0.42341,-0.70568 0.92523,-0.45477 0.92522,-0.0157 0.83114,0.5175 0.50181,0.73704 0.0627,1.2075 -0.70568,0.92523 -0.95659,0.45477 -1.09773,-0.21955 -0.36068,-0.0784 z"
         id="path3"
         style="fill:#11f718;fill-opacity:1"
         transform="translate(2.4114572,2.1539064)" /></g><path
       style="fill:#00ef00;fill-opacity:1;fill-rule:nonzero;stroke:none;stroke-width:0.264999;stroke-linecap:round;stroke-miterlimit:0.7;paint-order:markers fill stroke"
       d="m 105.5699,157.80599 c 0.066,-0.20255 0.14534,-0.44572 0.23523,-0.72136 -0.0817,-0.23059 -0.17105,-0.48296 -0.26659,-0.75273 0.0348,-0.29792 0.0715,-0.61281 0.10977,-0.94091 0.13651,-0.22751 0.27809,-0.46348 0.42341,-0.70568 0.30187,-0.14838 0.61113,-0.30038 0.92523,-0.45477 0.30461,-0.005 0.61378,-0.0104 0.92522,-0.0157 0.27573,0.17168 0.55343,0.34459 0.83114,0.5175 0.16767,0.24626 0.33534,0.49253 0.50181,0.73704 0.0211,0.40646 0.0421,0.80996 0.0627,1.2075 -0.23957,0.3141 -0.47544,0.62336 -0.70568,0.92523 -0.32831,0.15608 -0.64819,0.30815 -0.95659,0.45477 -0.38278,-0.0766 -0.75016,-0.15003 -1.09773,-0.21955 -0.12926,-0.0281 -0.25019,-0.0544 -0.36068,-0.0784 -0.23968,0.018 -0.45112,0.0339 -0.62724,0.0471 z m 0,0 c 0.17612,-0.0132 0.38756,-0.0291 0.62724,-0.0471 0.11049,0.024 0.23142,0.0503 0.36068,0.0784 0.34757,0.0695 0.71495,0.14299 1.09773,0.21955 0.3084,-0.14662 0.62828,-0.29869 0.95659,-0.45477 0.23024,-0.30187 0.46611,-0.61113 0.70568,-0.92523 -0.0206,-0.39754 -0.0416,-0.80104 -0.0627,-1.2075 -0.16647,-0.24451 -0.33414,-0.49078 -0.50181,-0.73704 -0.27771,-0.17291 -0.55541,-0.34582 -0.83114,-0.5175 -0.31144,0.005 -0.62061,0.0105 -0.92522,0.0157 -0.3141,0.15439 -0.62336,0.30639 -0.92523,0.45477 -0.14532,0.2422 -0.2869,0.47817 -0.42341,0.70568 -0.0383,0.3281 -0.075,0.64299 -0.10977,0.94091 0.0955,0.26977 0.18492,0.52214 0.26659,0.75273 -0.0899,0.27564 -0.16918,0.51881 -0.23523,0.72136 z"
       id="path2"
       inkscape:path-effect="#path-effect2"
       inkscape:original-d="m 105.5699,157.80599 0.23523,-0.72136 -0.26659,-0.75273 0.10977,-0.94091 0.42341,-0.70568 0.92523,-0.45477 0.92522,-0.0157 0.83114,0.5175 0.50181,0.73704 0.0627,1.2075 -0.70568,0.92523 -0.95659,0.45477 -1.09773,-0.21955 -0.36068,-0.0784 z"
       inkscape:linked-fill="path3"
       transform="translate(-105.47582,-154.24621)" /></g><g
     inkscape:groupmode="layer"
     id="layer5"
     inkscape:label="Capa 3"
     transform="translate(-106.46224,-154.40852)" /><g
     inkscape:groupmode="layer"
     id="layer6"
     inkscape:label="Capa 4"
     transform="translate(-106.46224,-154.40852)"><g
       id="g5"><path
         d="m 106.85581,158.2294 c 0.0157,-0.0627 0.1725,-0.76841 0.1725,-0.76841 l -0.28227,-0.67432 0.047,-0.79977 0.36068,-0.79977 0.58023,-0.37637 1.08205,-0.23522 0.9409,0.37636 0.65864,0.67432 0.14113,1.16045 -0.39204,0.92523 -0.90955,0.62727 -1.09772,0.0157 -0.5175,-0.23523 z"
         id="path5"
         style="fill:#11f718" /><path
         style="fill:#11f718;fill-opacity:1;fill-rule:nonzero;stroke:none;stroke-width:0.264999;stroke-linecap:round;stroke-miterlimit:0.7;paint-order:markers fill stroke"
         d="m 106.85581,158.2294 c 9.7e-4,-0.004 0.002,-0.0102 0.005,-0.019 0.002,-0.008 0.004,-0.0192 0.007,-0.0321 0.006,-0.0247 0.013,-0.057 0.0217,-0.0955 0.0163,-0.0724 0.0369,-0.1644 0.0586,-0.2612 0.0375,-0.16769 0.0804,-0.36069 0.0804,-0.36069 -0.0865,-0.20657 -0.18111,-0.43265 -0.28227,-0.67432 0.0149,-0.25323 0.0306,-0.52089 0.047,-0.79977 0.11628,-0.25784 0.23689,-0.52528 0.36068,-0.79977 0.18931,-0.1228 0.38325,-0.2486 0.58023,-0.37637 0.35624,-0.0774 0.71782,-0.15604 1.08205,-0.23522 0.31214,0.12486 0.62652,0.25061 0.9409,0.37636 0.22007,0.22531 0.44014,0.45062 0.65864,0.67432 0.0475,0.39062 0.0947,0.7784 0.14113,1.16045 -0.13309,0.3141 -0.26413,0.62336 -0.39204,0.92523 -0.31217,0.21529 -0.61631,0.42504 -0.90955,0.62727 -0.38277,0.005 -0.75015,0.0107 -1.09772,0.0157 -0.18547,-0.0843 -0.35897,-0.16317 -0.5175,-0.23523 -0.2996,0.0419 -0.5639,0.0789 -0.78405,0.10976 z m 0,0 c 0.22015,-0.0308 0.48445,-0.0678 0.78405,-0.10976 0.15853,0.0721 0.33203,0.15093 0.5175,0.23523 0.34757,-0.005 0.71495,-0.0102 1.09772,-0.0157 0.29324,-0.20223 0.59738,-0.41198 0.90955,-0.62727 0.12791,-0.30187 0.25895,-0.61113 0.39204,-0.92523 -0.0465,-0.38205 -0.0936,-0.76983 -0.14113,-1.16045 -0.2185,-0.2237 -0.43857,-0.44901 -0.65864,-0.67432 -0.31438,-0.12575 -0.62876,-0.2515 -0.9409,-0.37636 -0.36423,0.0792 -0.72581,0.15778 -1.08205,0.23522 -0.19698,0.12777 -0.39092,0.25357 -0.58023,0.37637 -0.12379,0.27449 -0.2444,0.54193 -0.36068,0.79977 -0.0164,0.27888 -0.0321,0.54654 -0.047,0.79977 0.10116,0.24167 0.1958,0.46775 0.28227,0.67432 0,0 -0.0429,0.193 -0.0804,0.36069 -0.0216,0.0968 -0.0422,0.18881 -0.0586,0.2612 -0.009,0.0385 -0.016,0.0708 -0.0217,0.0955 -0.003,0.0128 -0.005,0.0236 -0.007,0.0321 -0.002,0.009 -0.004,0.0151 -0.005,0.019 z"
         id="path4"
         inkscape:linked-fill="path5" /><g
         style="fill:#ffffff"
         id="g1"
         transform="matrix(0.26458333,0,0,0.26458333,106.46224,154.40853)"><path
           d="M 13.601,2.326 A 7.85,7.85 0 0 0 7.994,0 c -4.367,0 -7.926,3.558 -7.93,7.926 0,1.399 0.366,2.76 1.057,3.965 L 0,16 4.204,14.898 a 7.9,7.9 0 0 0 3.79,0.965 h 0.004 c 4.368,0 7.926,-3.558 7.93,-7.93 A 7.9,7.9 0 0 0 13.6,2.326 Z M 7.994,14.521 A 6.6,6.6 0 0 1 4.638,13.601 L 4.398,13.457 1.904,14.111 2.57,11.678 2.414,11.427 A 6.56,6.56 0 0 1 1.407,7.922 c 0,-3.626 2.957,-6.584 6.591,-6.584 a 6.56,6.56 0 0 1 4.66,1.931 6.56,6.56 0 0 1 1.928,4.66 c -0.004,3.639 -2.961,6.592 -6.592,6.592 M 11.609,9.587 C 11.412,9.488 10.439,9.009 10.256,8.941 10.074,8.876 9.941,8.842 9.811,9.04 9.678,9.237 9.298,9.686 9.184,9.815 9.07,9.948 8.952,9.963 8.754,9.865 8.557,9.765 7.918,9.557 7.162,8.88 6.572,8.355 6.177,7.705 6.059,7.508 5.945,7.31 6.048,7.204 6.147,7.105 6.234,7.017 6.344,6.873 6.443,6.759 6.543,6.645 6.576,6.561 6.641,6.429 6.706,6.295 6.675,6.181 6.626,6.082 6.576,5.983 6.181,5.006 6.014,4.612 5.854,4.223 5.691,4.277 5.569,4.272 5.455,4.265 5.322,4.265 5.189,4.265 A 0.73,0.73 0 0 0 4.66,4.512 C 4.478,4.71 3.969,5.189 3.969,6.166 c 0,0.977 0.71,1.916 0.81,2.049 0.098,0.133 1.394,2.132 3.383,2.992 0.47,0.205 0.84,0.326 1.129,0.418 0.475,0.152 0.904,0.129 1.246,0.08 0.38,-0.058 1.171,-0.48 1.338,-0.943 0.164,-0.464 0.164,-0.86 0.114,-0.943 C 11.94,9.735 11.807,9.686 11.609,9.587"
           id="path1"
           style="fill:#ffffff" /></g></g></g></svg>
